<?xml version="1.0" encoding="utf-8"?>
<!-- Generator: Adobe Illustrator 16.0.0, SVG Export Plug-In . SVG Version: 6.00 Build 0)  -->
<!DOCTYPE svg PUBLIC "-//W3C//DTD SVG 1.1//EN" "http://www.w3.org/Graphics/SVG/1.1/DTD/svg11.dtd">
<svg version="1.1" id="Layer_1" xmlns="http://www.w3.org/2000/svg" xmlns:xlink="http://www.w3.org/1999/xlink" x="0px" y="0px"
	 width="75px" height="75px" viewBox="0 0 75 75" enable-background="new 0 0 75 75" xml:space="preserve">
<g>
	<path fill="#61B4E4" d="M16.681,51.873l5.773-5.739l21.88-21.75l5.773-5.74c-1.154-3.804-0.223-8.1,2.803-11.106
		c3.188-3.168,7.813-4.018,11.783-2.573l-6.752,6.711l1.406,5.218l5.25,1.399l6.752-6.712c1.453,3.947,0.598,8.545-2.59,11.712
		c-3.023,3.006-7.344,3.933-11.172,2.786l-5.773,5.741L29.935,53.569l-5.775,5.739c1.154,3.804,0.223,8.101-2.801,11.106
		c-3.188,3.168-7.813,4.019-11.783,2.572l6.752-6.712l-1.408-5.217l-5.248-1.4L2.92,66.37c-1.455-3.945-0.599-8.545,2.587-11.711
		C8.533,51.651,12.853,50.726,16.681,51.873z"/>
	<g>
		<g>
			<polygon fill="#292E33" points="74.324,75 60.873,71.052 59.316,69.502 61.453,67.378 62.469,68.386 69.85,70.553 67.67,63.212 
				66.656,62.206 68.795,60.082 70.352,61.629 			"/>
		</g>
		<g>
			<polygon fill="#FFFFFF" points="10.934,19.375 18.368,11.986 67.721,61.045 60.285,68.435 			"/>
			<path fill="#292E33" d="M18.368,14.111l47.214,46.934l-5.297,5.264L13.072,19.375L18.368,14.111 M18.368,9.861l-9.57,9.513
				l51.488,51.184l9.572-9.514L18.368,9.861L18.368,9.861z"/>
		</g>
		<g>
			<polygon fill="#292E33" points="61.979,64.854 13.21,16.373 15.347,14.248 64.117,62.729 			"/>
		</g>
		<g>
			<path fill="#FFFFFF" d="M5.378,13.77l-2.96-2.944c-0.366-0.363-0.298-1.013,0.147-1.457l5.733-5.698
				c0.447-0.448,1.104-0.515,1.468-0.151l2.962,2.943"/>
			<path fill="#292E33" d="M4.309,14.832l-2.96-2.943c-0.952-0.946-0.886-2.552,0.147-3.581L7.23,2.609
				c0.522-0.523,1.23-0.825,1.938-0.826H9.17c0.638,0,1.231,0.241,1.667,0.677l2.96,2.94L11.66,7.525L9.108,4.99l-5.213,5.181
				l2.551,2.537L4.309,14.832z"/>
		</g>
		<polygon fill="#F7C450" points="20.874,12.352 15.209,6.721 5.638,16.235 11.303,21.866 		"/>
	</g>
</g>
</svg>
