<?xml version="1.0" encoding="utf-8"?>
<!-- Generator: Adobe Illustrator 16.0.0, SVG Export Plug-In . SVG Version: 6.00 Build 0)  -->
<!DOCTYPE svg PUBLIC "-//W3C//DTD SVG 1.1//EN" "http://www.w3.org/Graphics/SVG/1.1/DTD/svg11.dtd">
<svg version="1.1" id="Layer_1" xmlns="http://www.w3.org/2000/svg" xmlns:xlink="http://www.w3.org/1999/xlink" x="0px" y="0px"
	 width="75px" height="75px" viewBox="0 0 75 75" enable-background="new 0 0 75 75" xml:space="preserve">
<g>
	<g>
		<path fill="#292E33" d="M15.062,51.521c-7.773,0-14.099-6.323-14.099-14.097c0-7.774,6.325-14.099,14.099-14.099
			c7.774,0,14.1,6.324,14.1,14.099C29.162,45.198,22.836,51.521,15.062,51.521z M15.062,26.402c-6.078,0-11.022,4.945-11.022,11.023
			c0,6.078,4.945,11.021,11.022,11.021s11.023-4.942,11.023-11.021C26.085,31.347,21.14,26.402,15.062,26.402z"/>
	</g>
	<g>
		<path fill="#292E33" d="M15.062,45.628c-4.523,0-8.203-3.68-8.203-8.204c0-4.522,3.68-8.202,8.203-8.202
			c4.522,0,8.203,3.679,8.203,8.202C23.265,41.948,19.584,45.628,15.062,45.628z M15.062,32.298c-2.827,0-5.127,2.3-5.127,5.126
			c0,2.828,2.3,5.128,5.127,5.128c2.827,0,5.126-2.3,5.126-5.128C20.188,34.598,17.889,32.298,15.062,32.298z"/>
	</g>
	<g>
		<g>
			<path fill="#292E33" d="M60.433,28.196c-7.773,0-14.098-6.325-14.098-14.099C46.335,6.324,52.659,0,60.433,0
				C68.207,0,74.53,6.324,74.53,14.097C74.53,21.871,68.207,28.196,60.433,28.196z M60.433,3.076
				c-6.077,0-11.022,4.944-11.022,11.021c0,6.078,4.945,11.023,11.022,11.023s11.021-4.945,11.021-11.023
				C71.454,8.02,66.51,3.076,60.433,3.076z"/>
		</g>
		<circle fill="#61B4E4" cx="60.432" cy="14.097" r="6.665"/>
		<g>
			<path fill="#292E33" d="M60.433,74.849c-7.773,0-14.098-6.323-14.098-14.098c0-7.775,6.324-14.099,14.098-14.099
				c7.774,0,14.098,6.323,14.098,14.099C74.53,68.525,68.207,74.849,60.433,74.849z M60.433,49.729
				c-6.077,0-11.022,4.944-11.022,11.022c0,6.077,4.945,11.021,11.022,11.021s11.021-4.944,11.021-11.021
				C71.454,54.673,66.51,49.729,60.433,49.729z"/>
		</g>
		<circle fill="#F7C450" cx="60.432" cy="60.751" r="6.665"/>
	</g>
	<g>
		
			<rect x="23.333" y="49.135" transform="matrix(0.8911 0.4537 -0.4537 0.8911 26.9643 -11.0401)" fill="#292E33" width="26.314" height="3.075"/>
	</g>
	<g>
		
			<rect x="34.74" y="11.234" transform="matrix(0.4537 0.8912 -0.8912 0.4537 41.4785 -19.0513)" fill="#292E33" width="3.076" height="26.141"/>
	</g>
</g>
</svg>
