<?xml version="1.0" encoding="utf-8"?>
<!-- Generator: Adobe Illustrator 16.0.0, SVG Export Plug-In . SVG Version: 6.00 Build 0)  -->
<!DOCTYPE svg PUBLIC "-//W3C//DTD SVG 1.1//EN" "http://www.w3.org/Graphics/SVG/1.1/DTD/svg11.dtd">
<svg version="1.1" id="Layer_1" xmlns="http://www.w3.org/2000/svg" xmlns:xlink="http://www.w3.org/1999/xlink" x="0px" y="0px"
	 width="75px" height="75px" viewBox="0 0 75 75" enable-background="new 0 0 75 75" xml:space="preserve">
<g>
	<g>
		<g>
			<g>
				<path fill="#FFFFFF" d="M73.489,50.924V9.828c0-1.062-0.865-1.924-1.928-1.924H5.155c-1.062,0-1.924,0.863-1.924,1.924v41.096
					H73.489z"/>
				<path fill="#292E33" d="M74.978,52.414H1.741V9.828c0-1.883,1.532-3.414,3.414-3.414h66.407c1.885,0,3.416,1.531,3.416,3.414
					V52.414z M4.72,49.436h67.279V9.828c0-0.24-0.196-0.435-0.438-0.435H5.155c-0.24,0-0.435,0.195-0.435,0.435V49.436z"/>
			</g>
			<g>
				<path fill="#FFFFFF" d="M3.236,50.883v5.926c0,1.137,1.162,2.402,2.298,2.402h66.161c1.137,0,1.814-1.168,1.814-2.303v-6.025
					H3.236z"/>
				<path fill="#292E33" d="M71.695,60.701H5.534c-1.946,0-3.787-1.891-3.787-3.893v-7.414H75v7.514
					C75,58.771,73.763,60.701,71.695,60.701z M4.726,52.373v4.436c0,0.359,0.538,0.914,0.809,0.914h66.161
					c0.095,0,0.326-0.354,0.326-0.814v-4.535H4.726z"/>
			</g>
			<g>
				<path fill="#FFFFFF" d="M30.556,59.26c-0.121,1.473,0.141,4.75-0.176,6.352c-0.291,1.465-0.493,1.514-1.271,1.945
					c-0.44,0.242-1.181,0.576-1.801,0.846l0,0"/>
				<path fill="#292E33" d="M27.9,69.77l-1.183-2.734c0.74-0.32,1.351-0.605,1.676-0.785l0.099-0.055
					c0.093-0.051,0.174-0.09,0.242-0.133c0.033-0.086,0.094-0.285,0.185-0.742c0.163-0.82,0.141-2.41,0.125-3.689
					c-0.013-0.949-0.025-1.846,0.028-2.494l2.969,0.244c-0.042,0.506-0.03,1.334-0.019,2.211c0.021,1.563,0.042,3.182-0.181,4.309
					c-0.354,1.777-0.787,2.285-1.91,2.904l-0.099,0.055C29.301,69.15,28.489,69.514,27.9,69.77z"/>
			</g>
			<g>
				<path fill="#FFFFFF" d="M49.363,68.412c-0.624-0.271-1.378-0.613-1.822-0.855c-0.776-0.432-0.929-0.48-1.219-1.945
					c-0.316-1.602-0.057-4.799-0.177-6.273"/>
				<path fill="#292E33" d="M48.77,69.777c-0.602-0.262-1.426-0.633-1.942-0.914l-0.067-0.037c-1.22-0.678-1.557-1.195-1.897-2.928
					c-0.225-1.125-0.203-2.717-0.183-4.254c0.011-0.863,0.022-1.678-0.019-2.184l2.969-0.244c0.053,0.648,0.041,1.531,0.028,2.467
					c-0.016,1.256-0.038,2.816,0.126,3.639c0.091,0.459,0.148,0.672,0.183,0.768c0.068,0.041,0.146,0.08,0.237,0.131
					c0.373,0.205,0.993,0.496,1.752,0.826L48.77,69.777z"/>
			</g>
			<g>
				<line fill="#FFFFFF" x1="25.379" y1="68.283" x2="51.375" y2="68.283"/>
				<rect x="25.379" y="66.793" fill="#292E33" width="25.996" height="2.98"/>
			</g>
		</g>
	</g>
	<g>
		<rect x="11.175" y="33.484" fill="#F7C450" width="8.826" height="11.014"/>
		<g>
			<rect x="25.723" y="18.677" fill="#FFFFFF" width="8.831" height="25.821"/>
			<path fill="#292E33" d="M36.042,45.988H24.233V17.188h11.809V45.988z M27.212,43.01h5.852V20.167h-5.852V43.01z"/>
		</g>
		<rect x="40.271" y="25.666" fill="#F7C450" width="8.831" height="18.833"/>
		<rect x="54.824" y="12.698" fill="#61B4E4" width="8.827" height="31.8"/>
		<path fill="#61B4E4" d="M38.056,3.403H21.805c-0.653,0-1.18,0.526-1.18,1.177v6.75c0,0.652,0.526,1.176,1.18,1.176h6.52
			l0.43,0.748l1.173,2.029l1.174-2.029l0.429-0.748h6.525c0.648,0,1.178-0.524,1.178-1.176v-6.75
			C39.233,3.93,38.704,3.403,38.056,3.403z"/>
		<g>
			<rect x="25.545" y="6.528" fill="#FFFFFF" width="8.768" height="2.979"/>
		</g>
		<g>
			<line fill="#FFFFFF" x1="8.334" y1="44.498" x2="68.406" y2="44.498"/>
			<rect x="8.334" y="43.01" fill="#292E33" width="60.072" height="2.979"/>
		</g>
	</g>
</g>
</svg>
