<?xml version="1.0" encoding="utf-8"?>
<!-- Generator: Adobe Illustrator 16.0.0, SVG Export Plug-In . SVG Version: 6.00 Build 0)  -->
<!DOCTYPE svg PUBLIC "-//W3C//DTD SVG 1.1//EN" "http://www.w3.org/Graphics/SVG/1.1/DTD/svg11.dtd">
<svg version="1.1" id="Layer_1" xmlns="http://www.w3.org/2000/svg" xmlns:xlink="http://www.w3.org/1999/xlink" x="0px" y="0px"
	 width="75px" height="75px" viewBox="0 0 75 75" enable-background="new 0 0 75 75" xml:space="preserve">
<g>
	<polygon fill="#F7C450" points="26.183,21.351 74.74,21.351 74.74,55.833 66.294,55.833 66.294,64.982 57.147,55.833 
		26.183,55.833 	"/>
	<g>
		<polygon fill="#FFFFFF" points="65.911,9.59 1.525,9.59 1.525,48.015 11.726,48.015 11.726,60.086 25.066,48.015 65.911,48.015 		
			"/>
		<path fill="#292E33" d="M10.2,63.522V49.541H0V8.064h67.438v41.477H25.653L10.2,63.522z M3.051,46.489h10.2v10.158l11.227-10.158
			h39.908V11.115H3.051V46.489z"/>
	</g>
	<polygon fill="#61B4E4" points="16.483,43.256 6.284,43.256 6.284,14.349 61.152,14.349 61.152,43.256 23.232,43.256 	"/>
	<g>
		<circle fill="#FFFFFF" cx="20.897" cy="28.604" r="2.908"/>
		<circle fill="#FFFFFF" cx="33.719" cy="28.604" r="2.908"/>
		<circle fill="#FFFFFF" cx="46.541" cy="28.604" r="2.908"/>
	</g>
</g>
</svg>
