<?xml version="1.0" encoding="utf-8"?>
<!-- Generator: Adobe Illustrator 16.0.0, SVG Export Plug-In . SVG Version: 6.00 Build 0)  -->
<!DOCTYPE svg PUBLIC "-//W3C//DTD SVG 1.1//EN" "http://www.w3.org/Graphics/SVG/1.1/DTD/svg11.dtd">
<svg version="1.1" id="Layer_1" xmlns="http://www.w3.org/2000/svg" xmlns:xlink="http://www.w3.org/1999/xlink" x="0px" y="0px"
	 width="75px" height="75px" viewBox="0 0 75 75" enable-background="new 0 0 75 75" xml:space="preserve">
<g>
	<g>
		<g>
			<rect x="2.448" y="3.583" fill="#FFFFFF" width="71.308" height="8.325"/>
			<path fill="#292E33" d="M75.204,13.356H1V2.135h74.204V13.356z M3.896,10.461h68.412V5.032H3.896V10.461z"/>
		</g>
		<g>
			<line fill="#FFFFFF" x1="5.706" y1="7.686" x2="8.412" y2="7.686"/>
			<rect x="5.706" y="6.238" fill="#292E33" width="2.707" height="2.896"/>
		</g>
		<g>
			<line fill="#FFFFFF" x1="10.39" y1="7.686" x2="13.098" y2="7.686"/>
			<rect x="10.39" y="6.238" fill="#292E33" width="2.708" height="2.896"/>
		</g>
		<g>
			<line fill="#FFFFFF" x1="15.076" y1="7.686" x2="17.784" y2="7.686"/>
			<rect x="15.076" y="6.238" fill="#292E33" width="2.708" height="2.896"/>
		</g>
		<g>
			<polygon fill="#292E33" points="75.204,52.088 61.903,52.088 61.903,49.192 72.308,49.192 72.308,13.356 3.896,13.356 
				3.896,49.192 14.299,49.192 14.299,52.088 1,52.088 1,10.461 75.204,10.461 			"/>
		</g>
	</g>
	<rect x="6.792" y="16.252" fill="#61B4E4" width="62.621" height="30.044"/>
	<g>
		<path fill="#F7C450" d="M49.456,33.668c-4.782-0.89-8.832-2.914-11.354-5.384c-2.522,2.471-6.573,4.495-11.355,5.384
			c-3.003,0.557-5.89,0.585-8.432,0.188v16.3c0,12.511,8.354,17.997,19.788,21.335c11.433-3.338,19.786-8.824,19.786-21.335v-16.3
			C55.349,34.253,52.459,34.225,49.456,33.668z"/>
		<path fill="#292E33" d="M38.102,73l-0.405-0.118c-9.699-2.833-20.83-7.975-20.83-22.726V32.166l1.67,0.261
			c2.474,0.385,5.227,0.322,7.945-0.183c4.32-0.803,8.187-2.625,10.607-4.995l1.012-0.993l1.014,0.993
			c2.418,2.371,6.285,4.191,10.605,4.995c2.719,0.504,5.475,0.567,7.945,0.183l1.672-0.26v17.99
			c0,14.751-11.133,19.893-20.83,22.726L38.102,73z M19.762,35.486v14.67c0,10.038,5.491,15.984,18.34,19.826
			C50.95,66.141,56.44,60.194,56.44,50.156v-14.67c-2.331,0.194-4.803,0.059-7.249-0.395c-4.322-0.805-8.282-2.551-11.09-4.864
			c-2.809,2.313-6.768,4.059-11.09,4.863C24.566,35.545,22.097,35.68,19.762,35.486z"/>
	</g>
	<circle fill="#FFFFFF" cx="38.101" cy="49.434" r="7.963"/>
	<g>
		<polyline fill="#FFFFFF" points="41.483,46.442 37.403,51.554 34.72,49.822 		"/>
		<polygon fill="#292E33" points="37.719,53.48 33.935,51.041 35.504,48.606 37.088,49.627 40.35,45.539 42.615,47.345 		"/>
	</g>
</g>
</svg>
