<?xml version="1.0" encoding="utf-8"?>
<!-- Generator: Adobe Illustrator 16.0.0, SVG Export Plug-In . SVG Version: 6.00 Build 0)  -->
<!DOCTYPE svg PUBLIC "-//W3C//DTD SVG 1.1//EN" "http://www.w3.org/Graphics/SVG/1.1/DTD/svg11.dtd">
<svg version="1.1" id="Layer_1" xmlns="http://www.w3.org/2000/svg" xmlns:xlink="http://www.w3.org/1999/xlink" x="0px" y="0px"
	 width="75px" height="75px" viewBox="0 0 75 75" enable-background="new 0 0 75 75" xml:space="preserve">
<g>
	<g>
		<g>
			<path fill="#FFFFFF" d="M56.143,46.181c0,15.045-12.199,27.246-27.245,27.246c-15.048,0-27.245-12.201-27.245-27.246
				c0-15.044,12.197-27.243,27.245-27.243C43.943,18.938,56.143,31.136,56.143,46.181z"/>
			<path fill="#292E33" d="M28.897,74.933c-15.853,0-28.751-12.898-28.751-28.752c0-15.852,12.898-28.749,28.751-28.749
				c15.854,0,28.751,12.897,28.751,28.749C57.648,62.034,44.751,74.933,28.897,74.933z M28.897,20.444
				c-14.193,0-25.739,11.546-25.739,25.737c0,14.192,11.546,25.74,25.739,25.74c14.192,0,25.739-11.548,25.739-25.74
				C54.637,31.99,43.09,20.444,28.897,20.444z"/>
		</g>
		<g>
			<g>
				<path fill="#FFFFFF" d="M34.38,12.103c-0.004,0.653-0.529,1.18-1.186,1.18h-8.598c-0.65,0-1.18-0.527-1.177-1.18l-0.003-5.588
					c0.003-0.654,0.529-1.186,1.18-1.186l8.598,0.004c0.657,0,1.186,0.528,1.182,1.182L34.38,12.103z"/>
				<path fill="#292E33" d="M33.194,14.788h-8.598c-0.719,0-1.395-0.28-1.902-0.791c-0.507-0.509-0.783-1.184-0.781-1.902
					l-0.002-5.581c0.006-1.488,1.211-2.692,2.686-2.692l8.599,0.004c0.722,0,1.4,0.282,1.908,0.793
					c0.506,0.509,0.783,1.185,0.779,1.903l0.004,5.579C35.877,13.587,34.67,14.788,33.194,14.788z M24.925,11.776h7.948L32.87,6.839
					l-7.947-0.004L24.925,11.776z"/>
			</g>
		</g>
		<g>
			<g>
				<g>
					<g>
						<g>
							<path fill="#FFFFFF" d="M9.516,22.225l-1.955-2.879c-0.229-0.335-0.142-0.793,0.196-1.02l4.428-3.008
								c0.334-0.226,0.792-0.14,1.021,0.196l1.955,2.876"/>
							<path fill="#292E33" d="M8.27,23.071l-1.955-2.878c-0.336-0.491-0.461-1.088-0.349-1.678c0.113-0.59,0.449-1.1,0.948-1.436
								l4.424-3.006c1.021-0.692,2.416-0.427,3.112,0.593l1.956,2.877l-2.491,1.693l-1.521-2.239L9.24,19.139l1.521,2.24
								L8.27,23.071z"/>
						</g>
					</g>
				</g>
			</g>
		</g>
		<circle fill="#61B4E4" cx="28.897" cy="46.182" r="16.413"/>
		<circle fill="#FFFFFF" cx="28.897" cy="46.182" r="9.547"/>
		<g>
			<g>
				<line fill="#FFFFFF" x1="28.681" y1="23.706" x2="28.681" y2="27.486"/>
				<rect x="27.175" y="23.706" fill="#292E33" width="3.012" height="3.78"/>
			</g>
			<g>
				<line fill="#FFFFFF" x1="17.473" y1="26.826" x2="19.363" y2="30.097"/>
				
					<rect x="16.529" y="26.955" transform="matrix(0.5004 0.8658 -0.8658 0.5004 33.8445 -1.7265)" fill="#292E33" width="3.779" height="3.012"/>
			</g>
			<g>
				<line fill="#FFFFFF" x1="9.325" y1="35.129" x2="12.599" y2="37.022"/>
				
					<rect x="9.071" y="34.569" transform="matrix(0.8658 0.5005 -0.5005 0.8658 19.5261 -0.6433)" fill="#292E33" width="3.782" height="3.012"/>
			</g>
			<g>
				<line fill="#FFFFFF" x1="6.421" y1="46.397" x2="10.2" y2="46.397"/>
				<rect x="6.421" y="44.892" fill="#292E33" width="3.779" height="3.012"/>
			</g>
			<g>
				<line fill="#FFFFFF" x1="9.539" y1="57.606" x2="12.813" y2="55.717"/>
				
					<rect x="9.669" y="54.771" transform="matrix(0.4998 0.8661 -0.8661 0.4998 54.6655 18.6606)" fill="#292E33" width="3.013" height="3.781"/>
			</g>
			<g>
				<line fill="#FFFFFF" x1="17.844" y1="65.754" x2="19.737" y2="62.481"/>
				
					<rect x="17.284" y="62.227" transform="matrix(0.8657 0.5006 -0.5006 0.8657 34.6214 -0.794)" fill="#292E33" width="3.012" height="3.781"/>
			</g>
			<g>
				<line fill="#FFFFFF" x1="29.111" y1="68.658" x2="29.112" y2="64.879"/>
				<rect x="27.606" y="64.878" fill="#292E33" width="3.012" height="3.78"/>
			</g>
			<g>
				<line fill="#FFFFFF" x1="40.32" y1="65.54" x2="38.434" y2="62.266"/>
				
					<rect x="37.486" y="62.396" transform="matrix(0.4993 0.8664 -0.8664 0.4993 75.0786 -2.1226)" fill="#292E33" width="3.779" height="3.013"/>
			</g>
			<g>
				<line fill="#FFFFFF" x1="48.468" y1="57.235" x2="45.197" y2="55.343"/>
				
					<rect x="44.943" y="54.784" transform="matrix(0.8655 0.5009 -0.5009 0.8655 34.4979 -15.8884)" fill="#292E33" width="3.78" height="3.011"/>
			</g>
			<g>
				<line fill="#FFFFFF" x1="51.372" y1="45.971" x2="47.593" y2="45.967"/>
				<rect x="47.592" y="44.463" fill="#292E33" width="3.779" height="3.012"/>
			</g>
			<g>
				<line fill="#FFFFFF" x1="48.254" y1="34.76" x2="44.979" y2="36.648"/>
				
					<rect x="45.111" y="33.813" transform="matrix(0.4997 0.8662 -0.8662 0.4997 54.2513 -22.5165)" fill="#292E33" width="3.012" height="3.781"/>
			</g>
			<g>
				<line fill="#FFFFFF" x1="39.951" y1="26.61" x2="38.059" y2="29.882"/>
				
					<rect x="37.499" y="26.357" transform="matrix(0.8656 0.5008 -0.5008 0.8656 19.3893 -15.7361)" fill="#292E33" width="3.012" height="3.779"/>
			</g>
		</g>
		<g>
			<g>
				<path fill="#FFFFFF" d="M31.507,46.159c-0.002-1.442-1.171-2.609-2.611-2.613c-1.44,0.003-2.612,1.171-2.609,2.611
					c0,1.442,1.167,2.611,2.61,2.611C30.336,48.77,31.505,47.6,31.507,46.159z"/>
				<path fill="#292E33" d="M28.899,50.274L28.899,50.274h-0.004c-2.268,0-4.114-1.847-4.114-4.117
					c-0.002-1.096,0.426-2.131,1.205-2.909c0.777-0.777,1.81-1.207,2.908-1.209c2.272,0.006,4.117,1.853,4.12,4.117
					C33.011,48.429,31.165,50.274,28.899,50.274z M28.893,45.052c-0.289,0.001-0.568,0.115-0.777,0.326
					c-0.208,0.208-0.323,0.483-0.322,0.776c0,0.612,0.495,1.108,1.104,1.108h0.002c0.606,0,1.101-0.496,1.102-1.106
					C30,45.55,29.503,45.053,28.893,45.052z"/>
			</g>
		</g>
		<g>
			<rect x="27.391" y="13.13" fill="#292E33" width="3.012" height="4.113"/>
		</g>
	</g>
	<g>
		<g>
			<polygon fill="#F7C450" points="53.75,20.772 51.675,14.548 63.434,2.789 65.51,9.016 			"/>
			<polygon fill="#F7C450" points="53.75,20.772 59.976,22.848 71.734,11.089 65.51,9.016 			"/>
		</g>
		<g>
			<g>
				<path fill="#292E33" d="M53.093,23.561l-3.141-9.419L64.091,0l3.142,9.422L53.093,23.561z M53.398,14.955l1.011,3.03
					l9.377-9.375l-1.011-3.033L53.398,14.955z"/>
			</g>
			<g>
				<path fill="#292E33" d="M60.383,24.571l-9.421-3.14L65.103,7.292l9.42,3.139L60.383,24.571z M56.539,20.114l3.031,1.011
					l9.375-9.377l-3.029-1.009L56.539,20.114z"/>
			</g>
		</g>
		<g>
			<path fill="#292E33" d="M30.845,45.25c-0.385,0-0.771-0.147-1.064-0.442c-0.588-0.587-0.588-1.541,0-2.128L66.224,6.235
				c0.589-0.588,1.542-0.588,2.13,0c0.589,0.588,0.589,1.542,0,2.129L31.911,44.808C31.615,45.103,31.23,45.25,30.845,45.25z"/>
		</g>
	</g>
</g>
</svg>
