<?xml version="1.0" encoding="utf-8"?>
<!-- Generator: Adobe Illustrator 16.0.0, SVG Export Plug-In . SVG Version: 6.00 Build 0)  -->
<!DOCTYPE svg PUBLIC "-//W3C//DTD SVG 1.1//EN" "http://www.w3.org/Graphics/SVG/1.1/DTD/svg11.dtd">
<svg version="1.1" id="Layer_1" xmlns="http://www.w3.org/2000/svg" xmlns:xlink="http://www.w3.org/1999/xlink" x="0px" y="0px"
	 width="75px" height="75px" viewBox="0 0 75 75" enable-background="new 0 0 75 75" xml:space="preserve">
<g>
	<g>
		<g>
			<g>
				<path fill="#FFFFFF" stroke="#292E33" stroke-width="4" d="M35.892,45.024"/>
			</g>
		</g>
		<rect x="30.99" y="56.548" fill="#F7C450" width="9.804" height="11.425"/>
		<g>
			<polyline fill="#FFFFFF" points="32.471,56.512 32.473,53.16 39.313,53.161 39.313,56.512 			"/>
			<polygon fill="#292E33" points="33.977,56.513 30.966,56.511 30.968,51.655 40.817,51.656 40.817,56.512 37.808,56.512 
				37.808,54.667 33.977,54.666 			"/>
		</g>
		<g>
			<path fill="#FFFFFF" d="M39.313,67.973c0,0.545,0,1.094,0,1.642c-1.888,1.89-4.951,1.89-6.842-0.001c0-0.547,0-1.093,0.002-1.641
				"/>
			<path fill="#292E33" d="M35.894,72.536C35.894,72.536,35.894,72.536,35.894,72.536c-1.695,0-3.288-0.66-4.487-1.857l-0.44-0.441
				l0.001-2.27l3.011,0.009l-0.001,0.944c0.558,0.393,1.221,0.604,1.917,0.604l0,0c0.695,0,1.357-0.211,1.914-0.604v-0.949h3.01
				v2.265l-0.439,0.441C39.18,71.877,37.587,72.536,35.894,72.536z"/>
		</g>
		<g>
			<g>
				<g>
					<rect x="36.974" y="47.147" fill="#292E33" width="3.011" height="5.156"/>
				</g>
			</g>
			<g>
				<g>
					<rect x="31.799" y="47.147" fill="#292E33" width="3.011" height="5.156"/>
				</g>
			</g>
		</g>
		<g>
			<path fill="#FFFFFF" d="M55.145,29.525c-0.003-5.151-2.005-9.988-5.641-13.619c-3.64-3.644-8.489-5.644-13.65-5.633
				c-5.14,0.014-9.967,2.018-13.584,5.638c-7.504,7.511-7.506,19.732,0.006,27.235c3.644,3.646,8.499,5.644,13.661,5.636
				c5.138-0.013,9.958-2.017,13.577-5.636C53.146,39.513,55.147,34.675,55.145,29.525z"/>
			<path fill="#292E33" d="M35.903,50.287c-5.558,0-10.776-2.157-14.693-6.075c-3.917-3.912-6.074-9.126-6.075-14.68
				c0-5.552,2.154-10.767,6.068-14.685c3.902-3.905,9.103-6.064,14.645-6.079c5.596,0,10.807,2.157,14.721,6.075
				c3.917,3.912,6.077,9.126,6.08,14.681c0.003,5.55-2.153,10.766-6.072,14.686c-3.904,3.906-9.104,6.064-14.638,6.077H35.903z
				 M35.896,11.779c-4.779,0.013-9.227,1.859-12.563,5.197c-3.346,3.349-5.188,7.807-5.188,12.555c0,4.749,1.844,9.207,5.192,12.552
				c3.349,3.349,7.812,5.193,12.565,5.193v1.506l0.03-1.506c4.732-0.012,9.177-1.855,12.515-5.194
				c3.351-3.352,5.194-7.811,5.191-12.557c-0.003-4.75-1.85-9.208-5.199-12.554C45.094,13.623,40.64,11.779,35.896,11.779z"/>
		</g>
		<g>
			<path fill="#61B4E4" d="M46.408,39.995c-2.815,2.824-6.546,4.376-10.518,4.377c-8.187,0.007-14.846-6.65-14.843-14.837
				c0-3.951,1.538-7.668,4.332-10.474c2.809-2.823,6.542-4.374,10.506-4.375c3.962,0,7.687,1.54,10.496,4.352
				c2.808,2.803,4.353,6.534,4.357,10.489C50.74,33.475,49.204,37.19,46.408,39.995z"/>
			<g>
				<path fill="#FFFFFF" d="M26,29.534h-3.011c0-3.358,1.308-6.519,3.683-8.901c2.385-2.396,5.556-3.716,8.928-3.716v3.011
					c-2.564,0-4.979,1.005-6.796,2.831C26.996,24.572,26,26.979,26,29.534z"/>
			</g>
		</g>
	</g>
	<g>
		<path fill="#292E33" d="M72.548,26.381C62.747,12.631,49.8,5.059,36.09,5.059v-3.01c14.709,0,28.528,8.02,38.91,22.585
			L72.548,26.381z"/>
	</g>
	<g>
		<path fill="#292E33" d="M55.396,44.706l-1.543-2.584c5.287-3.157,10.101-7.647,14.317-13.354
			c-8.795-11.902-20.152-18.44-32.08-18.44c-11.929,0-23.286,6.539-32.081,18.44c4.127,5.584,8.832,10.008,13.997,13.158
			l-1.567,2.57c-5.781-3.525-11.001-8.523-15.516-14.855L0.3,28.768l0.623-0.874c9.46-13.27,21.95-20.577,35.167-20.577
			c13.217,0,25.706,7.307,35.166,20.577l0.623,0.874l-0.623,0.873C66.646,36.106,61.311,41.175,55.396,44.706z"/>
	</g>
</g>
</svg>
