<?xml version="1.0" encoding="utf-8"?>
<!-- Generator: Adobe Illustrator 16.0.0, SVG Export Plug-In . SVG Version: 6.00 Build 0)  -->
<!DOCTYPE svg PUBLIC "-//W3C//DTD SVG 1.1//EN" "http://www.w3.org/Graphics/SVG/1.1/DTD/svg11.dtd">
<svg version="1.1" id="Layer_1" xmlns="http://www.w3.org/2000/svg" xmlns:xlink="http://www.w3.org/1999/xlink" x="0px" y="0px"
	 width="75px" height="75px" viewBox="0 0 75 75" enable-background="new 0 0 75 75" xml:space="preserve">
<g>
	<g>
		<g>
			<rect x="36.484" fill="#292E33" width="3.158" height="5.233"/>
		</g>
		<g>
			
				<rect x="17.945" y="5.492" transform="matrix(0.5 0.866 -0.866 0.5 16.405 -14.2712)" fill="#292E33" width="5.233" height="3.158"/>
		</g>
		<g>
			
				<rect x="5.018" y="18.102" transform="matrix(0.8661 0.4998 -0.4998 0.8661 10.8593 -1.1811)" fill="#292E33" width="5.232" height="3.158"/>
		</g>
		<g>
			<rect x="0.127" y="35.485" fill="#292E33" width="5.232" height="3.158"/>
		</g>
		<g>
			
				<rect x="5.619" y="51.948" transform="matrix(0.5 0.866 -0.866 0.5 50.8543 21.05)" fill="#292E33" width="3.158" height="5.233"/>
		</g>
		<g>
			
				<rect x="18.227" y="64.876" transform="matrix(0.866 0.5 -0.5 0.866 36.3965 -0.8619)" fill="#292E33" width="3.158" height="5.232"/>
		</g>
		<g>
			<rect x="35.611" y="69.767" fill="#292E33" width="3.157" height="5.233"/>
		</g>
		<g>
			
				<rect x="52.073" y="66.35" transform="matrix(0.4997 0.8662 -0.8662 0.4997 86.1971 -13.3882)" fill="#292E33" width="5.231" height="3.156"/>
		</g>
		<g>
			
				<rect x="65.002" y="53.741" transform="matrix(0.8659 0.5002 -0.5002 0.8659 36.7338 -26.4033)" fill="#292E33" width="5.233" height="3.159"/>
		</g>
		<g>
			<rect x="69.895" y="36.358" fill="#292E33" width="5.232" height="3.157"/>
		</g>
		<g>
			
				<rect x="66.477" y="17.821" transform="matrix(0.4998 0.8661 -0.8661 0.4998 51.7425 -48.7235)" fill="#292E33" width="3.158" height="5.232"/>
		</g>
		<g>
			
				<rect x="53.867" y="4.892" transform="matrix(0.8661 0.4998 -0.4998 0.8661 11.1765 -26.7094)" fill="#292E33" width="3.158" height="5.233"/>
		</g>
	</g>
	<path fill="#F7C450" d="M64.995,37.5c0,15.117-12.25,27.372-27.368,27.372c-15.12,0-27.371-12.255-27.371-27.372
		c0-15.118,12.251-27.371,27.371-27.371C52.745,10.128,64.995,22.382,64.995,37.5z"/>
	<g>
		<g>
			<path fill="#FFFFFF" d="M36.728,38.398c-2.476-2.476-5.77-3.84-9.272-3.84c-3.503,0-6.797,1.365-9.275,3.84L5.912,50.671
				c-2.477,2.476-3.841,5.77-3.841,9.272s1.365,6.798,3.841,9.274c2.478,2.478,5.771,3.843,9.276,3.843
				c3.503,0,6.795-1.365,9.273-3.843L36.728,56.95C41.843,51.837,41.843,43.514,36.728,38.398z M31.233,51.455L18.965,63.722
				c-2.085,2.084-5.474,2.084-7.559,0c-2.083-2.084-2.083-5.475,0-7.557l12.269-12.27c2.083-2.083,5.475-2.083,7.559,0
				C33.318,45.979,33.316,49.371,31.233,51.455z"/>
			<path fill="#292E33" d="M15.188,74.639c-3.926,0-7.616-1.528-10.392-4.305s-4.304-6.466-4.304-10.391
				c0-3.926,1.528-7.615,4.304-10.389l12.269-12.272c2.777-2.776,6.467-4.304,10.392-4.304s7.615,1.529,10.389,4.304
				c2.773,2.772,4.298,6.463,4.298,10.392c0,3.93-1.525,7.62-4.298,10.393L25.577,70.334C22.801,73.11,19.111,74.639,15.188,74.639z
				 M27.456,36.137c-3.081,0-5.979,1.2-8.158,3.379L7.028,51.787c-2.179,2.178-3.379,5.074-3.379,8.156
				c0,3.081,1.2,5.979,3.379,8.158c2.18,2.179,5.078,3.38,8.16,3.38c3.08,0,5.978-1.201,8.157-3.38l12.268-12.268
				c2.176-2.176,3.374-5.073,3.374-8.159s-1.197-5.983-3.374-8.16C33.434,37.337,30.537,36.137,27.456,36.137z M15.186,66.863
				c-1.85,0-3.589-0.719-4.896-2.024c-2.699-2.701-2.699-7.093,0-9.791L22.56,42.779c1.306-1.306,3.044-2.025,4.895-2.025
				c1.852,0,3.59,0.72,4.897,2.024c1.305,1.307,2.024,3.046,2.023,4.897c0,1.851-0.719,3.59-2.025,4.896L20.082,64.838
				C18.775,66.145,17.036,66.863,15.186,66.863z M27.455,43.912c-1.008,0-1.953,0.391-2.662,1.1l-12.269,12.27
				c-1.467,1.468-1.467,3.855,0,5.325c0.709,0.708,1.654,1.1,2.662,1.1s1.953-0.392,2.663-1.102l12.268-12.267
				c0.709-0.71,1.1-1.654,1.1-2.663c0.001-1.007-0.39-1.953-1.099-2.663C29.408,44.304,28.462,43.912,27.455,43.912z"/>
		</g>
		<g>
			<path fill="#FFFFFF" d="M69.348,5.782c-2.477-2.479-5.77-3.843-9.273-3.843s-6.799,1.364-9.275,3.843L38.53,18.051
				c-2.477,2.478-3.843,5.77-3.843,9.275c0,3.502,1.367,6.796,3.843,9.273c2.478,2.479,5.771,3.844,9.275,3.844
				c3.503,0,6.795-1.365,9.272-3.844l12.27-12.266C74.461,19.217,74.461,10.896,69.348,5.782z M63.853,18.836l-12.27,12.268
				c-2.084,2.083-5.474,2.083-7.556,0c-2.085-2.084-2.085-5.474,0-7.558l12.267-12.268c2.083-2.084,5.474-2.084,7.559,0
				C65.937,13.362,65.935,16.753,63.853,18.836z"/>
			<path fill="#292E33" d="M47.806,42.022c-3.927,0-7.617-1.529-10.393-4.307c-2.776-2.777-4.306-6.466-4.306-10.39
				c0-3.924,1.529-7.614,4.306-10.391L49.682,4.666c2.773-2.777,6.465-4.306,10.393-4.306c3.926,0,7.614,1.529,10.391,4.307
				c2.77,2.771,4.296,6.461,4.296,10.39s-1.524,7.62-4.298,10.393L58.195,37.716C55.42,40.493,51.729,42.022,47.806,42.022z
				 M60.074,3.518c-3.083,0-5.979,1.2-8.158,3.38l-12.271,12.27c-2.179,2.18-3.38,5.077-3.38,8.158c0,3.079,1.201,5.977,3.38,8.157
				c2.18,2.181,5.078,3.382,8.16,3.382c3.079,0,5.978-1.201,8.157-3.382L68.23,23.216c2.176-2.175,3.373-5.073,3.373-8.159
				c0-3.085-1.197-5.982-3.373-8.158C66.052,4.718,63.155,3.518,60.074,3.518z M47.806,34.245c-1.852,0-3.59-0.718-4.896-2.024
				c-1.307-1.306-2.026-3.045-2.026-4.896s0.72-3.589,2.026-4.895l12.269-12.268c1.304-1.306,3.042-2.026,4.894-2.026
				c1.851,0,3.589,0.719,4.897,2.025c2.697,2.699,2.697,7.092-0.002,9.791L52.701,32.221C51.393,33.527,49.654,34.245,47.806,34.245
				z M60.072,11.294c-1.007,0-1.952,0.392-2.661,1.101L45.143,24.663c-0.711,0.71-1.1,1.655-1.1,2.662
				c0,1.007,0.389,1.952,1.1,2.662c0.71,0.71,1.654,1.101,2.663,1.101c1.006,0,1.952-0.392,2.662-1.101L62.735,17.72
				c1.47-1.469,1.47-3.857,0.002-5.325C62.026,11.686,61.08,11.294,60.072,11.294z"/>
		</g>
		<g>
			<path fill="#FFFFFF" d="M31.109,51.577c-2.082,2.082-5.474,2.083-7.557,0c-2.083-2.084-2.083-5.475,0-7.559l20.365-20.365
				c2.083-2.084,5.474-2.084,7.559,0c2.083,2.084,2.083,5.473,0,7.556L31.109,51.577z"/>
			<path fill="#292E33" d="M27.332,54.719c-1.851,0-3.59-0.72-4.895-2.025c-2.699-2.7-2.699-7.092,0-9.791l20.366-20.365
				c1.304-1.306,3.042-2.026,4.894-2.026s3.591,0.72,4.896,2.026c2.698,2.699,2.698,7.091,0,9.789L32.226,52.693
				C30.922,53.999,29.184,54.719,27.332,54.719z M47.696,23.669c-1.007,0-1.952,0.391-2.661,1.101L24.669,45.135
				c-1.468,1.468-1.468,3.857,0,5.325c0.709,0.709,1.655,1.101,2.663,1.101c1.007,0,1.952-0.392,2.661-1.101l20.367-20.367
				c1.468-1.467,1.468-3.856,0-5.323C49.65,24.06,48.704,23.669,47.696,23.669z"/>
		</g>
	</g>
</g>
</svg>
