<?xml version="1.0" encoding="utf-8"?>
<!-- Generator: Adobe Illustrator 16.0.0, SVG Export Plug-In . SVG Version: 6.00 Build 0)  -->
<!DOCTYPE svg PUBLIC "-//W3C//DTD SVG 1.1//EN" "http://www.w3.org/Graphics/SVG/1.1/DTD/svg11.dtd">
<svg version="1.1" id="Layer_1" xmlns="http://www.w3.org/2000/svg" xmlns:xlink="http://www.w3.org/1999/xlink" x="0px" y="0px"
	 width="75px" height="75px" viewBox="0 0 75 75" enable-background="new 0 0 75 75" xml:space="preserve">
<g>
	<g>
		<g>
			<path fill="#292E33" d="M30.489,73.536c-15.179,0-22.874-5.636-22.874-16.75v-20.01c0-12.611,10.261-22.873,22.874-22.873h8.167
				c12.612,0,22.874,10.262,22.874,22.873v20.01h-2.872v-20.01c0-11.028-8.973-20.002-20.002-20.002h-8.167
				c-11.03,0-20.003,8.974-20.003,20.002v20.01c0,9.339,6.543,13.878,20.003,13.878V73.536z"/>
		</g>
		<g>
			<path fill="#FFFFFF" d="M32.611,70.373c0,1.037-0.841,1.878-1.879,1.878h-4.819c-1.037,0-1.879-0.841-1.879-1.878l0,0
				c0-1.036,0.842-1.877,1.879-1.877h4.819C31.77,68.496,32.611,69.337,32.611,70.373L32.611,70.373z"/>
			<path fill="#292E33" d="M30.732,73.688h-4.819c-1.827,0-3.314-1.486-3.314-3.314c0-1.827,1.487-3.313,3.314-3.313h4.819
				c1.827,0,3.315,1.486,3.315,3.313C34.047,72.201,32.56,73.688,30.732,73.688z M25.914,69.931c-0.244,0-0.443,0.198-0.443,0.442
				c0,0.245,0.199,0.443,0.443,0.443h4.819c0.244,0,0.443-0.198,0.443-0.443c0-0.244-0.199-0.442-0.443-0.442H25.914z"/>
		</g>
		<g>
			<g>
				<path fill="#FFFFFF" d="M57.015,28.457c-0.934,0-1.843-0.474-2.36-1.331c-3.42-5.656-9.4-9.032-15.999-9.032h-8.167
					c-6.6,0-12.579,3.376-16,9.032c-0.787,1.303-2.482,1.719-3.784,0.932c-1.303-0.788-1.721-2.482-0.932-3.785
					c4.426-7.321,12.171-11.691,20.716-11.691h8.167c8.544,0,16.287,4.37,20.715,11.691c0.788,1.302,0.37,2.997-0.932,3.785
					C57.992,28.328,57.5,28.457,57.015,28.457z"/>
				<path fill="#292E33" d="M57.015,29.893c-1.46,0-2.836-0.775-3.59-2.024c-3.157-5.221-8.679-8.338-14.77-8.338h-8.167
					c-6.091,0-11.613,3.117-14.772,8.34c-0.753,1.247-2.128,2.022-3.588,2.022c-0.763,0-1.512-0.209-2.167-0.605
					c-1.978-1.197-2.614-3.779-1.417-5.757c4.688-7.754,12.892-12.383,21.945-12.383h8.167c9.051,0,17.254,4.629,21.943,12.383
					c0.58,0.958,0.751,2.084,0.483,3.173c-0.268,1.086-0.942,2.004-1.901,2.584C58.526,29.684,57.777,29.893,57.015,29.893z
					 M30.489,16.659h8.167c7.105,0,13.546,3.636,17.228,9.725c0.363,0.604,1.201,0.817,1.812,0.447
					c0.303-0.184,0.516-0.472,0.6-0.815c0.084-0.342,0.03-0.696-0.152-0.999c-4.165-6.887-11.449-10.998-19.486-10.998h-8.167
					c-8.04,0-15.324,4.111-19.488,10.998c-0.377,0.623-0.177,1.437,0.447,1.814c0.61,0.368,1.447,0.157,1.812-0.446
					C16.944,20.294,23.384,16.659,30.489,16.659z"/>
			</g>
		</g>
		<g>
			<g>
				<path fill="#61B4E4" d="M11.826,38.004h-1.634c-3.788,0-6.86,3.069-6.86,6.857v8.494c0,3.79,3.072,6.859,6.86,6.859h1.634
					V38.004z"/>
				<path fill="#292E33" d="M13.262,61.651h-3.069c-4.574,0-8.295-3.721-8.295-8.296v-8.494c0-4.573,3.722-8.294,8.295-8.294h3.069
					V61.651z M10.192,39.438c-2.991,0-5.424,2.433-5.424,5.423v8.494c0,2.992,2.433,5.425,5.424,5.425h0.198V39.438H10.192z"/>
			</g>
			<g>
				<path fill="#FFFFFF" d="M16.401,59.684c0,1.273-1.033,2.307-2.306,2.307h-2.576c-1.273,0-2.306-1.033-2.306-2.307v-21.01
					c0-1.271,1.033-2.305,2.306-2.305h2.576c1.273,0,2.306,1.033,2.306,2.305V59.684z"/>
				<path fill="#292E33" d="M14.095,63.427h-2.576c-2.063,0-3.742-1.679-3.742-3.743v-21.01c0-2.062,1.679-3.74,3.742-3.74h2.576
					c2.063,0,3.742,1.678,3.742,3.74v21.01C17.836,61.748,16.158,63.427,14.095,63.427z M11.519,37.806
					c-0.48,0-0.871,0.389-0.871,0.868v21.01c0,0.479,0.391,0.872,0.871,0.872h2.576c0.48,0,0.871-0.393,0.871-0.872v-21.01
					c0-0.479-0.391-0.868-0.871-0.868H11.519z"/>
			</g>
		</g>
		<g>
			<g>
				<path fill="#61B4E4" d="M57.52,60.357h1.634c3.789,0,6.859-3.071,6.859-6.861v-8.492c0-3.788-3.07-6.861-6.859-6.861H57.52
					V60.357z"/>
				<path fill="#292E33" d="M59.153,61.794h-3.069V36.708h3.069c4.573,0,8.296,3.722,8.296,8.296v8.492
					C67.449,58.071,63.727,61.794,59.153,61.794z M58.955,58.923h0.198c2.99,0,5.424-2.435,5.424-5.427v-8.492
					c0-2.992-2.434-5.425-5.424-5.425h-0.198V58.923z"/>
			</g>
			<g>
				<path fill="#FFFFFF" d="M52.946,38.676c0-1.273,1.032-2.305,2.306-2.305h2.576c1.272,0,2.305,1.031,2.305,2.305v21.01
					c0,1.271-1.032,2.305-2.305,2.305h-2.576c-1.273,0-2.306-1.033-2.306-2.305V38.676z"/>
				<path fill="#292E33" d="M57.828,63.427h-2.576c-2.063,0-3.741-1.679-3.741-3.741v-21.01c0-2.062,1.679-3.741,3.741-3.741h2.576
					c2.063,0,3.741,1.679,3.741,3.741v21.01C61.569,61.748,59.891,63.427,57.828,63.427z M55.252,37.806
					c-0.479,0-0.87,0.391-0.87,0.87v21.01c0,0.479,0.391,0.87,0.87,0.87h2.576c0.479,0,0.869-0.391,0.869-0.87v-21.01
					c0-0.479-0.39-0.87-0.869-0.87H55.252z"/>
			</g>
		</g>
		<g>
			<polygon fill="#F7C450" points="25.381,1.824 73.103,1.824 73.103,30.074 43.282,30.074 34.292,39.064 34.292,30.074 
				25.381,30.074 			"/>
			<g>
				<g>
					<line fill="#FFFFFF" x1="64.458" y1="12.655" x2="34.026" y2="12.655"/>
					<rect x="34.026" y="11.219" fill="#292E33" width="30.432" height="2.871"/>
				</g>
				<g>
					<line fill="#FFFFFF" x1="64.458" y1="19.308" x2="34.026" y2="19.308"/>
					<rect x="34.026" y="17.873" fill="#292E33" width="30.432" height="2.872"/>
				</g>
			</g>
		</g>
	</g>
	<g>
		<g>
			<rect x="27.635" y="47.331" fill="#292E33" width="2.913" height="2.87"/>
		</g>
		<g>
			<rect x="33.137" y="47.331" fill="#292E33" width="2.912" height="2.87"/>
		</g>
		<g>
			<rect x="38.64" y="47.331" fill="#292E33" width="2.913" height="2.87"/>
		</g>
	</g>
</g>
</svg>
